<?xml version="1.0" encoding="UTF-8" standalone="no"?>
<!DOCTYPE svg PUBLIC "-//W3C//DTD SVG 1.1//EN" "http://www.w3.org/Graphics/SVG/1.1/DTD/svg11.dtd">
<!-- Created with Vectornator (http://vectornator.io/) -->
<svg height="100%" stroke-miterlimit="10" style="fill-rule:nonzero;clip-rule:evenodd;stroke-linecap:round;stroke-linejoin:round;" version="1.1" viewBox="0 0 2406 2406" width="100%" xml:space="preserve" xmlns="http://www.w3.org/2000/svg" xmlns:xlink="http://www.w3.org/1999/xlink">
<defs>
<linearGradient gradientTransform="matrix(1 0 0 1 0 0)" gradientUnits="userSpaceOnUse" id="LinearGradient" x1="308.984" x2="7665.17" y1="1203.01" y2="1203.01">
<stop offset="0" stop-color="#000000"/>
<stop offset="1" stop-color="#000000"/>
</linearGradient>
<filter color-interpolation-filters="sRGB" filterUnits="userSpaceOnUse" height="1903.37" id="Filter" width="1881.37" x="263.586" y="255.738">
<feDropShadow dx="2.34736" dy="4.41474" flood-color="#dfdfdf" flood-opacity="1" in="SourceGraphic" result="Shadow" stdDeviation="9"/>
</filter>
</defs>
<g id="无标题">
<g opacity="1">
<clipPath id="ClipPath">
<path d="M0 0L2406 0L2406 0L2406 2406L2406 2406L0 2406L0 2406L0 0L0 0Z"/>
</clipPath>
<g clip-path="url(#ClipPath)">
<path d="M1.00003 578.439C1.00003 259.528 259.529 1.00003 578.44 1.00003L1827.56 1.00003C2146.47 1.00003 2405 259.528 2405 578.439L2405 1828.56C2405 2147.47 2146.47 2406 1827.56 2406L578.44 2406C259.529 2406 1.00003 2147.47 1.00003 1828.56L1.00003 578.439Z" fill="#ffffff" fill-rule="evenodd" opacity="1" stroke="none"/>
<g opacity="1">
<clipPath id="ClipPath_2">
<path d="M309 299L2097 299L2097 299L2097 2107L2097 2107L309 2107L309 2107L309 299L309 299Z"/>
</clipPath>
<g clip-path="url(#ClipPath_2)">
<g filter="url(#Filter)">
<path d="M1107.27 299.074C909.26 299.074 733.342 426.413 672.024 614.364C544.725 640.571 434.86 720.187 370.427 832.923C271.119 1004.34 293.795 1219.84 426.837 1366.77C385.762 1489.84 399.859 1624.51 465.457 1735.95C564.157 1907.97 762.752 1996.14 957.09 1955.11C1043.17 2052.14 1166.9 2107.46 1296.7 2106.94C1494.71 2106.94 1670.63 1979.61 1731.95 1791.65C1859.45 1765.32 1969.18 1685.73 2032.93 1573.1C2132.85 1401.68 2110.17 1186.18 1977.15 1039.25L1977.15 1038.64C2018.2 915.577 2004.13 780.812 1938.53 668.857C1839.81 497.437 1641.19 409.254 1447.49 450.276C1361.01 353.512 1237.13 298.453 1107.27 299.074ZM1107.27 416.629L1106.66 417.237C1186.36 417.237 1262.99 444.787 1324.29 495.615C1321.83 496.829 1316.92 499.888 1313.25 501.732L952.811 709.272C934.413 719.684 923.379 739.273 923.379 760.706L923.379 1248.02L768.291 1158.65L768.291 755.804C768.219 568.695 919.922 416.895 1107.27 416.608L1107.27 416.629ZM1541.48 558.503C1663.05 558.27 1775.46 623.028 1836.14 728.253C1875.37 796.826 1890.07 877.026 1876.58 954.774C1874.13 952.93 1869.24 950.501 1866.16 948.657L1505.72 740.488C1487.28 730.071 1464.72 730.071 1446.27 740.488L1023.9 984.147L1023.9 805.373L1372.7 603.951C1423.99 574.257 1482.19 558.574 1541.48 558.482L1541.48 558.503ZM649.977 743.547L649.977 1171.49C649.977 1192.92 661.011 1211.91 679.408 1222.93L1101.14 1465.97L945.427 1555.96L597.238 1355.14C435.218 1261.37 379.823 1054.28 473.428 892.298C513.086 823.645 575.544 771.014 649.977 743.525L649.977 743.547ZM1457.91 849.453L1806.7 1050.27C1969.16 1143.94 2024.31 1350.87 1930.52 1513.11L1931.12 1513.72C1891.29 1582.29 1828.75 1634.94 1754.58 1661.89L1754.58 1233.92C1754.58 1212.49 1743.54 1192.9 1725.15 1182.51L1302.8 938.83L1457.91 849.453ZM1201.67 997.011L1379.46 1099.86L1379.46 1304.94L1201.67 1407.79L1023.9 1304.94L1023.9 1099.86L1201.67 997.011ZM1481.2 1158.65L1636.29 1248.02L1636.29 1650.26C1636.29 1837.6 1484.26 1989.43 1297.31 1989.43L1297.31 1988.83C1218.22 1988.83 1140.98 1961.27 1080.29 1910.47C1082.75 1909.25 1088.26 1906.17 1091.33 1904.33L1451.76 1696.79C1470.16 1686.38 1481.81 1666.79 1481.18 1645.36L1481.2 1158.65ZM1380.04 1421.89L1380.04 1600.65L1031.25 1801.46C868.795 1894.52 661.598 1839.42 567.806 1677.79L568.415 1677.79C528.578 1609.82 514.46 1529.01 527.948 1451.27C530.402 1453.11 535.311 1455.54 538.374 1457.38L898.813 1665.55C917.257 1675.97 939.819 1675.97 958.263 1665.55L1380.04 1421.89Z" fill="url(#LinearGradient)" fill-rule="nonzero" stroke="none"/>
<path d="" fill="#000000" stroke="none"/>
</g>
</g>
</g>
</g>
</g>
</g>
</svg>
