<?xml version="1.0" encoding="UTF-8" standalone="no"?>
<!DOCTYPE svg PUBLIC "-//W3C//DTD SVG 1.1//EN" "http://www.w3.org/Graphics/SVG/1.1/DTD/svg11.dtd">
<!-- Created with Vectornator (http://vectornator.io/) -->
<svg height="100%" stroke-miterlimit="10" style="fill-rule:nonzero;clip-rule:evenodd;stroke-linecap:round;stroke-linejoin:round;" version="1.1" viewBox="0 0 2406 2406" width="100%" xml:space="preserve" xmlns="http://www.w3.org/2000/svg" xmlns:xlink="http://www.w3.org/1999/xlink">
<defs>
<linearGradient gradientTransform="matrix(1.33878 0 0 1.32729 -406.73 -396.36)" gradientUnits="userSpaceOnUse" id="LinearGradient" x1="308.984" x2="7665.17" y1="1203.01" y2="1203.01">
<stop offset="0" stop-color="#000000"/>
<stop offset="1" stop-color="#000000"/>
</linearGradient>
</defs>
<g id="无标题">
<g opacity="1">
<clipPath id="ClipPath">
<path d="M0 0L2406 0L2406 0L2406 2406L2406 2406L0 2406L0 2406L0 0L0 0Z"/>
</clipPath>
<g clip-path="url(#ClipPath)">
<g opacity="1">
<clipPath id="ClipPath_2">
<path d="M6.95201 0.499023L2400.68 0.499023L2400.68 0.499023L2400.68 2400.23L2400.68 2400.23L6.95201 2400.23L6.95201 2400.23L6.95201 0.499023L6.95201 0.499023Z"/>
</clipPath>
<g clip-path="url(#ClipPath_2)">
<path d="M1075.66 0.597242C810.566 0.597242 575.051 169.613 492.96 419.077C322.535 453.862 175.45 559.535 89.189 709.168C-43.7622 936.687-13.4041 1222.72 164.709 1417.74C109.719 1581.09 128.592 1759.83 216.413 1907.74C348.55 2136.06 614.424 2253.09 874.599 2198.63C989.841 2327.42 1155.49 2400.84 1329.26 2400.15C1594.35 2400.15 1829.87 2231.15 1911.96 1981.67C2082.66 1946.73 2229.56 1841.09 2314.91 1691.6C2448.68 1464.07 2418.32 1178.04 2240.23 983.023L2240.23 982.213C2295.19 818.874 2276.35 640.002 2188.53 491.405C2056.36 263.882 1790.46 146.838 1531.14 201.286C1415.36 72.8521 1249.51-0.227003 1075.66 0.597242ZM1075.66 156.626L1074.84 157.433C1181.54 157.433 1284.13 194 1366.2 261.464C1362.9 263.075 1356.33 267.135 1351.42 269.583L868.871 545.048C844.24 558.867 829.468 584.868 829.468 613.315L829.468 1260.12L621.84 1141.5L621.84 606.809C621.743 358.462 824.84 156.98 1075.66 156.599L1075.66 156.626ZM1656.97 344.934C1819.72 344.625 1970.21 430.577 2051.45 570.241C2103.97 661.257 2123.65 767.705 2105.59 870.899C2102.31 868.452 2095.76 865.228 2091.64 862.78L1609.09 586.48C1584.4 572.654 1554.2 572.654 1529.5 586.48L964.043 909.886L964.043 672.601L1431.01 405.256C1499.67 365.844 1577.59 345.028 1656.97 344.906L1656.97 344.934ZM463.444 590.54L463.444 1158.54C463.444 1186.99 478.216 1212.19 502.845 1226.82L1067.45 1549.4L858.985 1668.85L392.838 1402.3C175.93 1277.84 101.768 1002.97 227.084 787.976C280.177 696.853 363.795 626.997 463.444 590.511L463.444 590.54ZM1545.09 731.108L2012.04 997.65C2229.53 1121.98 2303.37 1396.63 2177.8 1611.97L2178.61 1612.78C2125.28 1703.79 2041.56 1773.67 1942.26 1809.44L1942.26 1241.41C1942.26 1212.96 1927.48 1186.96 1902.86 1173.17L1337.43 849.737L1545.09 731.108ZM1202.04 926.96L1440.06 1063.47L1440.06 1335.67L1202.04 1472.18L964.043 1335.67L964.043 1063.47L1202.04 926.96ZM1576.27 1141.5L1783.9 1260.12L1783.9 1794.01C1783.9 2042.66 1580.36 2244.18 1330.08 2244.18L1330.08 2243.39C1224.19 2243.39 1120.79 2206.81 1039.54 2139.38C1042.83 2137.76 1050.21 2133.67 1054.32 2131.23L1536.85 1855.77C1561.49 1841.95 1577.08 1815.95 1576.24 1787.5L1576.27 1141.5ZM1440.83 1490.9L1440.83 1728.16L973.883 1994.69C756.392 2118.21 479.002 2045.08 353.435 1830.55L354.251 1830.55C300.918 1740.33 282.017 1633.08 300.074 1529.89C303.36 1532.33 309.932 1535.56 314.032 1538L796.579 1814.3C821.272 1828.13 851.477 1828.13 876.17 1814.3L1440.83 1490.9Z" fill="url(#LinearGradient)" fill-rule="nonzero" opacity="1" stroke="none"/>
<path d="" fill="#000000" fill-rule="nonzero" opacity="1" stroke="none"/>
</g>
</g>
</g>
</g>
</g>
</svg>
